# xmcd
#
# Track frame offsets: 
#        150
#        22074
#        34241
#        57243
#        80599
#        109472
#        112602
#        126057
#        147850
#        176652
#        187979
#        206116
#        228168
#        249097
#        262398
#        281008
#
# Disc length: 3930 seconds
#
# Revision: 2
# Processed by: cddbd v1.5.2PL0 Copyright (c) Steve Scherf et al.
# Submitted via: ExactAudioCopy v0.95b4
#
DISCID=e60f5810
DTITLE=James Booker - Let's Make a Better World!
DYEAR=1977
DGENRE=NOLA
TTITLE0=Life
TTITLE1=On the Sunny Side of the Street
TTITLE2=Junco Partner
TTITLE3=Put Out the Light
TTITLE4=One Helluva Nerve
TTITLE5=Booker's Original
TTITLE6=Baby Face
TTITLE7=So Swell When You're Well
TTITLE8=Since I Fell for You
TTITLE9=Black Night is Falling
TTITLE10=Come On In My House
TTITLE11=Let's Make a Better World
TTITLE12=People Get Ready
TTITLE13=Black Minute Waltz
TTITLE14=LIttle Tune for Lefty
TTITLE15=Malaguena a la Louisiana
EXTD=
EXTT0=
EXTT1=
EXTT2=
EXTT3=
EXTT4=
EXTT5=
EXTT6=
EXTT7=
EXTT8=
EXTT9=
EXTT10=
EXTT11=
EXTT12=
EXTT13=
EXTT14=
EXTT15=
PLAYORDER=
